<svg width="142" height="29" viewBox="0 0 142 29" fill="none" xmlns="http://www.w3.org/2000/svg">
<path d="M16.3333 19.6667C16.3333 21.7317 15.4349 23.5983 13.9999 24.87C12.7633 25.99 11.1299 26.6667 9.33325 26.6667C5.47159 26.6667 2.33325 23.5283 2.33325 19.6667C2.33325 17.2702 3.55077 15.151 5.39316 13.8924C5.6437 13.7213 5.97935 13.8404 6.11027 14.1141C7.20152 16.3957 9.24901 18.1066 11.6899 18.7683C12.4249 18.9783 13.1949 19.0833 13.9999 19.0833C14.6004 19.0833 15.1741 19.0232 15.7313 18.913C16.0191 18.8561 16.3059 19.041 16.3233 19.3338C16.3299 19.4452 16.3333 19.5568 16.3333 19.6667Z" fill="#369FFF"/>
<path d="M21 10.3333C21 11.2433 20.825 12.1183 20.51 12.9117C19.705 14.9417 17.9783 16.505 15.8433 17.0883C15.26 17.2517 14.6417 17.3333 14 17.3333C13.3583 17.3333 12.74 17.2517 12.1567 17.0883C10.0217 16.505 8.295 14.9417 7.49 12.9117C7.175 12.1183 7 11.2433 7 10.3333C7 6.47167 10.1383 3.33334 14 3.33334C17.8617 3.33334 21 6.47167 21 10.3333Z" fill="#FF993A"/>
<path d="M25.6666 19.6667C25.6666 23.5283 22.5283 26.6667 18.6666 26.6667C17.7573 26.6667 16.8841 26.4931 16.087 26.1745C15.7704 26.048 15.7112 25.6402 15.9365 25.3844C17.3165 23.8176 18.0833 21.7894 18.0833 19.6667C18.0833 19.27 18.0483 18.8733 17.9899 18.5V18.5C17.9552 18.2848 18.065 18.0732 18.2557 17.9677C19.8282 17.0972 21.107 15.7551 21.8898 14.1149C22.0206 13.8409 22.3565 13.7215 22.6073 13.8928C24.4493 15.1514 25.6666 17.2705 25.6666 19.6667Z" fill="#90CD41"/>
<path d="M58.1328 18.4766H49.7891V25.1562H46.8359V18.4766H38.6094V16.1328H58.1328V18.4766ZM43.8594 7.10938H52.8125V4.64844H55.8125V14.0703H40.9062V4.64844H43.8594V7.10938ZM52.8125 11.6797V9.45312H43.8594V11.6797H52.8125ZM77.4453 19.9531H74.4453V18.2656H70.3672V16.2266H74.4453V3.85156H77.4453V19.9531ZM77.9141 24.7812H62.0234V18.4062H65V15.5703C63.5469 15.6328 61.7656 15.6641 59.6562 15.6641L59.3047 13.2969C62.0547 13.2812 64.5273 13.2344 66.7227 13.1562C68.918 13.0781 71.0078 12.9141 72.9922 12.6641L73.1562 14.7969C71.5312 15.0703 69.8125 15.2734 68 15.4062V19.4609H65V22.3906H77.9141V24.7812ZM66.2422 4.57812C67.2656 4.57031 68.1797 4.72656 68.9844 5.04688C69.7891 5.36719 70.418 5.82031 70.8711 6.40625C71.332 6.98437 71.5625 7.64844 71.5625 8.39844C71.5625 9.14062 71.3359 9.79688 70.8828 10.3672C70.4297 10.9375 69.7969 11.3789 68.9844 11.6914C68.1797 11.9961 67.2656 12.1484 66.2422 12.1484C65.1953 12.1484 64.2656 11.9961 63.4531 11.6914C62.6406 11.3789 62.0078 10.9414 61.5547 10.3789C61.1016 9.80859 60.875 9.14844 60.875 8.39844C60.875 7.64844 61.0977 6.98437 61.543 6.40625C61.9961 5.82031 62.6289 5.36719 63.4414 5.04688C64.2617 4.72656 65.1953 4.57031 66.2422 4.57812ZM66.2422 6.75781C65.4688 6.75781 64.8516 6.90234 64.3906 7.19141C63.9297 7.48047 63.7031 7.88281 63.7109 8.39844C63.7031 8.90625 63.9258 9.30078 64.3789 9.58203C64.8398 9.85547 65.4609 9.99219 66.2422 9.99219C66.9766 9.99219 67.5703 9.85156 68.0234 9.57031C68.4844 9.28906 68.7188 8.89844 68.7266 8.39844C68.7188 7.88281 68.4844 7.48047 68.0234 7.19141C67.5703 6.90234 66.9766 6.75781 66.2422 6.75781ZM92.2344 7.64844H87.9922C88 8.50781 88.1797 9.32422 88.5312 10.0977C88.8906 10.8633 89.4375 11.5469 90.1719 12.1484C90.9062 12.75 91.8203 13.2109 92.9141 13.5312L91.4844 15.875C90.3359 15.5234 89.3477 15.0078 88.5195 14.3281C87.6914 13.6484 87.0352 12.8398 86.5508 11.9023C86.0664 13.0039 85.3828 13.9609 84.5 14.7734C83.625 15.5781 82.5625 16.1875 81.3125 16.6016L79.7891 14.2344C80.9219 13.875 81.875 13.3555 82.6484 12.6758C83.4219 11.9961 83.9961 11.2227 84.3711 10.3555C84.7539 9.48828 84.9531 8.58594 84.9688 7.64844H80.6094V5.25781H92.2344V7.64844ZM97.0391 8.77344H99.9219V11.2109H97.0391V16.4844H94.0391V3.82812H97.0391V8.77344ZM90.0547 16.9062C91.5234 16.8984 92.7969 17.0586 93.875 17.3867C94.9609 17.707 95.793 18.1758 96.3711 18.793C96.957 19.4102 97.25 20.1484 97.25 21.0078C97.25 21.8672 96.957 22.6055 96.3711 23.2227C95.793 23.8477 94.9609 24.3242 93.875 24.6523C92.7969 24.9883 91.5234 25.1562 90.0547 25.1562C88.5547 25.1562 87.2539 24.9883 86.1523 24.6523C85.0586 24.3242 84.2148 23.8477 83.6211 23.2227C83.0352 22.6055 82.7422 21.8672 82.7422 21.0078C82.7422 20.1484 83.0352 19.4102 83.6211 18.793C84.2148 18.1758 85.0586 17.707 86.1523 17.3867C87.2539 17.0586 88.5547 16.8984 90.0547 16.9062ZM90.0547 19.2266C88.6328 19.2266 87.5547 19.375 86.8203 19.6719C86.0938 19.9688 85.7344 20.4141 85.7422 21.0078C85.7344 21.6094 86.0977 22.0664 86.832 22.3789C87.5664 22.6836 88.6406 22.8359 90.0547 22.8359C91.4453 22.8359 92.5 22.6836 93.2188 22.3789C93.9375 22.0742 94.2969 21.6172 94.2969 21.0078C94.2969 20.4141 93.9375 19.9688 93.2188 19.6719C92.5 19.375 91.4453 19.2266 90.0547 19.2266ZM117.781 9.40625H120.664V11.8203H117.781V17.9141H114.781V3.82812H117.781V9.40625ZM111.195 7.71875H104.586V12.9922C106.609 12.9766 108.238 12.9258 109.473 12.8398C110.715 12.7461 111.922 12.5781 113.094 12.3359L113.352 14.7266C112.094 14.9766 110.785 15.1523 109.426 15.2539C108.066 15.3555 106.312 15.4062 104.164 15.4062H103.391H101.609V5.32812H111.195V7.71875ZM112.414 17.3516C112.414 18.1797 112.668 18.9648 113.176 19.707C113.691 20.4414 114.461 21.0781 115.484 21.6172C116.508 22.1484 117.75 22.5156 119.211 22.7188L118.039 25.0625C116.398 24.8125 114.973 24.3359 113.762 23.6328C112.559 22.9375 111.625 22.0781 110.961 21.0547C110.297 22.0859 109.359 22.9492 108.148 23.6445C106.938 24.3398 105.508 24.8125 103.859 25.0625L102.711 22.7188C104.156 22.5156 105.387 22.1484 106.402 21.6172C107.418 21.0781 108.18 20.4414 108.688 19.707C109.203 18.9648 109.461 18.1797 109.461 17.3516V16.8125H112.414V17.3516ZM132.898 4.88281C132.898 6.85938 132.562 8.60547 131.891 10.1211C131.219 11.6289 130.16 12.9336 128.715 14.0352C127.27 15.1289 125.398 16.0234 123.102 16.7188L121.953 14.3516C124.758 13.5547 126.789 12.4336 128.047 10.9883L122.375 11.3984L121.953 9.05469L129.324 8.82031C129.496 8.34375 129.617 7.82812 129.688 7.27344H123.031V4.88281H132.898ZM139.578 16.0156H136.602V11.5859H132.758V9.14844H136.602V3.85156H139.578V16.0156ZM139.578 24.9219H125.445V16.9531H139.578V24.9219ZM128.375 22.5312H136.625V19.3203H128.375V22.5312Z" fill="black"/>
</svg>
