<svg width="316" height="48" viewBox="0 0 316 48" fill="none" xmlns="http://www.w3.org/2000/svg">
<path d="M14.984 38.336C12.136 38.336 9.64 37.776 7.496 36.656C5.384 35.504 3.736 33.936 2.552 31.952C1.4 29.968 0.824 27.712 0.824 25.184C0.824 22.624 1.384 20.368 2.504 18.416C3.656 16.432 5.224 14.88 7.208 13.76C9.224 12.64 11.512 12.08 14.072 12.08C16.568 12.08 18.792 12.624 20.744 13.712C22.696 14.8 24.232 16.336 25.352 18.32C26.472 20.304 27.032 22.64 27.032 25.328C27.032 25.584 27.016 25.872 26.984 26.192C26.984 26.512 26.968 26.816 26.936 27.104H5.576V23.12H23.768L21.416 24.368C21.448 22.896 21.144 21.6 20.504 20.48C19.864 19.36 18.984 18.48 17.864 17.84C16.776 17.2 15.512 16.88 14.072 16.88C12.6 16.88 11.304 17.2 10.184 17.84C9.096 18.48 8.232 19.376 7.592 20.528C6.984 21.648 6.68 22.976 6.68 24.512V25.472C6.68 27.008 7.032 28.368 7.736 29.552C8.44 30.736 9.432 31.648 10.712 32.288C11.992 32.928 13.464 33.248 15.128 33.248C16.568 33.248 17.864 33.024 19.016 32.576C20.168 32.128 21.192 31.424 22.088 30.464L25.304 34.16C24.152 35.504 22.696 36.544 20.936 37.28C19.208 37.984 17.224 38.336 14.984 38.336ZM31.9681 27.152V22.16H45.1681V27.152H31.9681ZM52.3089 38V4.4H66.1329C69.1089 4.4 71.6529 4.88 73.7649 5.84C75.9089 6.8 77.5569 8.176 78.7089 9.968C79.8609 11.76 80.4369 13.888 80.4369 16.352C80.4369 18.816 79.8609 20.944 78.7089 22.736C77.5569 24.496 75.9089 25.856 73.7649 26.816C71.6529 27.744 69.1089 28.208 66.1329 28.208H55.7649L58.5489 25.376V38H52.3089ZM74.2929 38L65.7969 25.808H72.4689L81.0129 38H74.2929ZM58.5489 26.048L55.7649 23.072H65.8449C68.5969 23.072 70.6609 22.48 72.0369 21.296C73.4449 20.112 74.1489 18.464 74.1489 16.352C74.1489 14.208 73.4449 12.56 72.0369 11.408C70.6609 10.256 68.5969 9.68 65.8449 9.68H55.7649L58.5489 6.608V26.048ZM98.3623 38.336C95.7383 38.336 93.4023 37.776 91.3543 36.656C89.3063 35.504 87.6903 33.936 86.5063 31.952C85.3223 29.968 84.7303 27.712 84.7303 25.184C84.7303 22.624 85.3223 20.368 86.5063 18.416C87.6903 16.432 89.3063 14.88 91.3543 13.76C93.4023 12.64 95.7383 12.08 98.3623 12.08C101.018 12.08 103.37 12.64 105.418 13.76C107.498 14.88 109.114 16.416 110.266 18.368C111.45 20.32 112.042 22.592 112.042 25.184C112.042 27.712 111.45 29.968 110.266 31.952C109.114 33.936 107.498 35.504 105.418 36.656C103.37 37.776 101.018 38.336 98.3623 38.336ZM98.3623 33.2C99.8343 33.2 101.146 32.88 102.298 32.24C103.45 31.6 104.346 30.672 104.986 29.456C105.658 28.24 105.994 26.816 105.994 25.184C105.994 23.52 105.658 22.096 104.986 20.912C104.346 19.696 103.45 18.768 102.298 18.128C101.146 17.488 99.8503 17.168 98.4103 17.168C96.9383 17.168 95.6263 17.488 94.4743 18.128C93.3543 18.768 92.4583 19.696 91.7863 20.912C91.1143 22.096 90.7783 23.52 90.7783 25.184C90.7783 26.816 91.1143 28.24 91.7863 29.456C92.4583 30.672 93.3543 31.6 94.4743 32.24C95.6263 32.88 96.9223 33.2 98.3623 33.2ZM129.3 38.336C126.676 38.336 124.34 37.776 122.292 36.656C120.244 35.504 118.628 33.936 117.444 31.952C116.26 29.968 115.668 27.712 115.668 25.184C115.668 22.624 116.26 20.368 117.444 18.416C118.628 16.432 120.244 14.88 122.292 13.76C124.34 12.64 126.676 12.08 129.3 12.08C131.956 12.08 134.308 12.64 136.356 13.76C138.436 14.88 140.052 16.416 141.204 18.368C142.388 20.32 142.98 22.592 142.98 25.184C142.98 27.712 142.388 29.968 141.204 31.952C140.052 33.936 138.436 35.504 136.356 36.656C134.308 37.776 131.956 38.336 129.3 38.336ZM129.3 33.2C130.772 33.2 132.084 32.88 133.236 32.24C134.388 31.6 135.284 30.672 135.924 29.456C136.596 28.24 136.932 26.816 136.932 25.184C136.932 23.52 136.596 22.096 135.924 20.912C135.284 19.696 134.388 18.768 133.236 18.128C132.084 17.488 130.788 17.168 129.348 17.168C127.876 17.168 126.564 17.488 125.412 18.128C124.292 18.768 123.396 19.696 122.724 20.912C122.052 22.096 121.716 23.52 121.716 25.184C121.716 26.816 122.052 28.24 122.724 29.456C123.396 30.672 124.292 31.6 125.412 32.24C126.564 32.88 127.86 33.2 129.3 33.2ZM181.069 12.08C183.117 12.08 184.925 12.48 186.493 13.28C188.093 14.08 189.341 15.312 190.237 16.976C191.133 18.608 191.581 20.72 191.581 23.312V38H185.581V24.08C185.581 21.808 185.085 20.112 184.093 18.992C183.101 17.872 181.677 17.312 179.821 17.312C178.509 17.312 177.341 17.6 176.317 18.176C175.325 18.752 174.541 19.6 173.965 20.72C173.421 21.84 173.149 23.264 173.149 24.992V38H167.149V24.08C167.149 21.808 166.653 20.112 165.661 18.992C164.669 17.872 163.245 17.312 161.389 17.312C160.077 17.312 158.909 17.6 157.885 18.176C156.893 18.752 156.109 19.6 155.533 20.72C154.989 21.84 154.717 23.264 154.717 24.992V38H148.717V12.368H154.429V19.184L153.421 17.168C154.285 15.504 155.533 14.24 157.165 13.376C158.829 12.512 160.717 12.08 162.829 12.08C165.229 12.08 167.309 12.672 169.069 13.856C170.861 15.04 172.045 16.832 172.621 19.232L170.269 18.416C171.101 16.496 172.477 14.96 174.397 13.808C176.317 12.656 178.541 12.08 181.069 12.08ZM223.506 38.48C220.882 38.48 218.37 38.112 215.97 37.376C213.57 36.608 211.666 35.632 210.258 34.448L212.418 29.6C213.762 30.656 215.426 31.536 217.41 32.24C219.394 32.944 221.426 33.296 223.506 33.296C225.266 33.296 226.69 33.104 227.778 32.72C228.866 32.336 229.666 31.824 230.178 31.184C230.69 30.512 230.946 29.76 230.946 28.928C230.946 27.904 230.578 27.088 229.842 26.48C229.106 25.84 228.146 25.344 226.962 24.992C225.81 24.608 224.514 24.256 223.074 23.936C221.666 23.616 220.242 23.248 218.802 22.832C217.394 22.384 216.098 21.824 214.914 21.152C213.762 20.448 212.818 19.52 212.082 18.368C211.346 17.216 210.978 15.744 210.978 13.952C210.978 12.128 211.458 10.464 212.418 8.96C213.41 7.424 214.898 6.208 216.882 5.312C218.898 4.384 221.442 3.92 224.514 3.92C226.53 3.92 228.53 4.176 230.514 4.688C232.498 5.2 234.226 5.936 235.698 6.896L233.73 11.744C232.226 10.848 230.674 10.192 229.074 9.776C227.474 9.328 225.938 9.104 224.466 9.104C222.738 9.104 221.33 9.312 220.242 9.728C219.186 10.144 218.402 10.688 217.89 11.36C217.41 12.032 217.17 12.8 217.17 13.664C217.17 14.688 217.522 15.52 218.226 16.16C218.962 16.768 219.906 17.248 221.058 17.6C222.242 17.952 223.554 18.304 224.994 18.656C226.434 18.976 227.858 19.344 229.266 19.76C230.706 20.176 232.002 20.72 233.154 21.392C234.338 22.064 235.282 22.976 235.986 24.128C236.722 25.28 237.09 26.736 237.09 28.496C237.09 30.288 236.594 31.952 235.602 33.488C234.642 34.992 233.154 36.208 231.138 37.136C229.122 38.032 226.578 38.48 223.506 38.48ZM242.702 38V12.368H248.702V38H242.702ZM245.726 8.144C244.606 8.144 243.678 7.792 242.942 7.088C242.238 6.384 241.886 5.536 241.886 4.544C241.886 3.52 242.238 2.672 242.942 2C243.678 1.296 244.606 0.943999 245.726 0.943999C246.846 0.943999 247.758 1.28 248.462 1.952C249.198 2.592 249.566 3.408 249.566 4.4C249.566 5.456 249.214 6.352 248.51 7.088C247.806 7.792 246.878 8.144 245.726 8.144ZM268.193 47.648C265.825 47.648 263.505 47.328 261.233 46.688C258.993 46.08 257.153 45.184 255.713 44L258.401 39.488C259.521 40.416 260.929 41.152 262.625 41.696C264.353 42.272 266.097 42.56 267.857 42.56C270.673 42.56 272.737 41.904 274.049 40.592C275.361 39.312 276.017 37.376 276.017 34.784V30.224L276.497 24.416L276.305 18.608V12.368H282.017V34.112C282.017 38.752 280.833 42.16 278.465 44.336C276.097 46.544 272.673 47.648 268.193 47.648ZM267.425 36.848C264.993 36.848 262.785 36.336 260.801 35.312C258.849 34.256 257.297 32.8 256.145 30.944C255.025 29.088 254.465 26.912 254.465 24.416C254.465 21.952 255.025 19.792 256.145 17.936C257.297 16.08 258.849 14.64 260.801 13.616C262.785 12.592 264.993 12.08 267.425 12.08C269.601 12.08 271.553 12.512 273.281 13.376C275.009 14.24 276.385 15.584 277.409 17.408C278.465 19.232 278.993 21.568 278.993 24.416C278.993 27.264 278.465 29.616 277.409 31.472C276.385 33.296 275.009 34.656 273.281 35.552C271.553 36.416 269.601 36.848 267.425 36.848ZM268.337 31.76C269.841 31.76 271.185 31.456 272.369 30.848C273.553 30.208 274.465 29.344 275.105 28.256C275.777 27.136 276.113 25.856 276.113 24.416C276.113 22.976 275.777 21.712 275.105 20.624C274.465 19.504 273.553 18.656 272.369 18.08C271.185 17.472 269.841 17.168 268.337 17.168C266.833 17.168 265.473 17.472 264.257 18.08C263.073 18.656 262.145 19.504 261.473 20.624C260.833 21.712 260.513 22.976 260.513 24.416C260.513 25.856 260.833 27.136 261.473 28.256C262.145 29.344 263.073 30.208 264.257 30.848C265.473 31.456 266.833 31.76 268.337 31.76ZM304.449 12.08C306.497 12.08 308.321 12.48 309.921 13.28C311.553 14.08 312.833 15.312 313.761 16.976C314.689 18.608 315.153 20.72 315.153 23.312V38H309.153V24.08C309.153 21.808 308.609 20.112 307.521 18.992C306.465 17.872 304.977 17.312 303.057 17.312C301.649 17.312 300.401 17.6 299.313 18.176C298.225 18.752 297.377 19.616 296.769 20.768C296.193 21.888 295.905 23.312 295.905 25.04V38H289.905V12.368H295.617V19.28L294.609 17.168C295.505 15.536 296.801 14.288 298.497 13.424C300.225 12.528 302.209 12.08 304.449 12.08Z" fill="white"/>
</svg>
