<svg width="16" height="16" viewBox="0 0 16 16" fill="none" xmlns="http://www.w3.org/2000/svg">
<path d="M1.30816 4.30592C1.50554 4.11004 1.7732 4 2.05229 4C2.33138 4 2.59904 4.11004 2.79641 4.30592L8.00635 9.47795L13.2163 4.30592C13.4148 4.11559 13.6807 4.01027 13.9566 4.01266C14.2326 4.01504 14.4966 4.12492 14.6917 4.31865C14.8869 4.51237 14.9976 4.77443 15 5.04839C15.0024 5.32235 14.8963 5.58628 14.7045 5.78334L8.75048 11.6941C8.55311 11.89 8.28544 12 8.00635 12C7.72727 12 7.4596 11.89 7.26223 11.6941L1.30816 5.78334C1.11085 5.5874 1 5.32169 1 5.04463C1 4.76757 1.11085 4.50186 1.30816 4.30592V4.30592Z" fill="#222222"/>
</svg>
