<svg width="16" height="16" viewBox="0 0 16 16" fill="none" xmlns="http://www.w3.org/2000/svg">
<path d="M15.1527 11.9775C14.9418 12.1884 14.6557 12.3069 14.3574 12.3069C14.059 12.3069 13.773 12.1884 13.562 11.9775L7.99323 6.40875L2.42448 11.9775C2.2123 12.1824 1.92813 12.2958 1.63315 12.2933C1.33818 12.2907 1.05602 12.1724 0.847435 11.9638C0.638851 11.7552 0.520537 11.473 0.517974 11.1781C0.515411 10.8831 0.628804 10.5989 0.833732 10.3867L7.19786 4.02262C7.40883 3.81172 7.69492 3.69324 7.99323 3.69324C8.29154 3.69324 8.57764 3.81172 8.78861 4.02262L15.1527 10.3868C15.3636 10.5977 15.4821 10.8838 15.4821 11.1821C15.4821 11.4804 15.3636 11.7665 15.1527 11.9775V11.9775Z" fill="white"/>
</svg>
