<svg width="37" height="37" viewBox="0 0 37 37" fill="none" xmlns="http://www.w3.org/2000/svg">
<path d="M21.0637 24.0725C21.0637 26.7355 19.9052 29.1428 18.0546 30.7827C16.4598 32.2271 14.3535 33.0997 12.0365 33.0997C7.05647 33.0997 3.00928 29.0525 3.00928 24.0725C3.00928 20.9226 4.64044 18.1439 7.09349 16.5335C7.34713 16.367 7.68269 16.4858 7.80951 16.7614C9.19789 19.779 11.8744 22.0461 15.0756 22.914C16.0235 23.1848 17.0165 23.3202 18.0546 23.3202C18.8847 23.3202 19.6752 23.2311 20.4422 23.0689C20.7292 23.0082 21.0159 23.1932 21.0397 23.4856C21.0557 23.6811 21.0637 23.8788 21.0637 24.0725Z" fill="#369FFF"/>
<path d="M27.0817 12.0362C27.0817 13.2098 26.8561 14.3382 26.4498 15.3613C25.4117 17.9791 23.185 19.9952 20.4317 20.7475C19.6794 20.9581 18.882 21.0634 18.0545 21.0634C17.2271 21.0634 16.4296 20.9581 15.6774 20.7475C12.9241 19.9952 10.6974 17.9791 9.65925 15.3613C9.25302 14.3382 9.02734 13.2098 9.02734 12.0362C9.02734 7.05623 13.0745 3.00903 18.0545 3.00903C23.0346 3.00903 27.0817 7.05623 27.0817 12.0362Z" fill="#FF993A"/>
<path d="M33.0997 24.0725C33.0997 29.0525 29.0525 33.0997 24.0725 33.0997C22.829 33.0997 21.6379 32.848 20.5605 32.3884C20.2469 32.2547 20.188 31.847 20.418 31.5953C22.2818 29.5552 23.3203 26.8779 23.3203 24.0725C23.3203 23.561 23.2751 23.0494 23.1999 22.568L23.1832 22.4642C23.1484 22.2484 23.2583 22.036 23.4505 21.932C25.5687 20.785 27.2827 18.9782 28.2998 16.7623C28.4265 16.4863 28.7623 16.3672 29.0161 16.5339C31.4688 18.1444 33.0997 20.9228 33.0997 24.0725Z" fill="#90CD41"/>
</svg>
