<svg width="16" height="16" viewBox="0 0 16 16" fill="none" xmlns="http://www.w3.org/2000/svg">
<path d="M14.0348 5.59464H12.5884C12.5063 5.59464 12.4277 5.63036 12.3723 5.69286L8.46342 10.1982V1.14286C8.46342 1.06429 8.39913 1 8.32056 1H7.24913C7.17056 1 7.10628 1.06429 7.10628 1.14286V10.1982L3.19735 5.69286C3.14378 5.63036 3.0652 5.59464 2.98128 5.59464H1.53485C1.41342 5.59464 1.34735 5.73929 1.4277 5.83036L7.35449 12.6607C7.40806 12.7225 7.4743 12.7721 7.5487 12.8061C7.62311 12.84 7.70395 12.8576 7.78574 12.8576C7.86753 12.8576 7.94837 12.84 8.02278 12.8061C8.09718 12.7721 8.16342 12.7225 8.21699 12.6607L14.142 5.83036C14.2223 5.7375 14.1563 5.59464 14.0348 5.59464Z" fill="black" fill-opacity="0.85"/>
<line x1="2.53479" y1="14.6787" x2="13.0348" y2="14.6787" stroke="black" stroke-width="1.5" stroke-linecap="round"/>
</svg>
