<svg width="24" height="24" viewBox="0 0 24 24" fill="none" xmlns="http://www.w3.org/2000/svg">
<path d="M18 18C19.6569 18 21 16.6569 21 15C21 13.3431 19.6569 12 18 12C16.3431 12 15 13.3431 15 15C15 16.6569 16.3431 18 18 18Z" stroke="#5A8DFF" stroke-width="1.5" stroke-linecap="round" stroke-linejoin="round"/>
<path d="M8 13C10.2091 13 12 11.2091 12 9C12 6.79086 10.2091 5 8 5C5.79086 5 4 6.79086 4 9C4 11.2091 5.79086 13 8 13Z" stroke="#5A8DFF" stroke-width="1.5" stroke-linecap="round" stroke-linejoin="round"/>
<path d="M10.4999 13.5C9.58232 13.0794 8.57343 12.8971 7.56664 12.9699C6.55986 13.0428 5.58773 13.3685 4.74025 13.9169C3.89277 14.4652 3.19734 15.2186 2.71834 16.1071C2.23933 16.9956 1.99224 17.9906 1.99993 19" stroke="#5A8DFF" stroke-width="1.5" stroke-linecap="round" stroke-linejoin="round"/>
<path d="M21.7001 16.4L20.8 16.1" stroke="#5A8DFF" stroke-width="1.5" stroke-linecap="round" stroke-linejoin="round"/>
<path d="M15.2 13.9L14.3 13.6" stroke="#5A8DFF" stroke-width="1.5" stroke-linecap="round" stroke-linejoin="round"/>
<path d="M16.6001 18.7L16.9001 17.8" stroke="#5A8DFF" stroke-width="1.5" stroke-linecap="round" stroke-linejoin="round"/>
<path d="M19.1001 12.2L19.4001 11.3" stroke="#5A8DFF" stroke-width="1.5" stroke-linecap="round" stroke-linejoin="round"/>
<path d="M19.6 18.7L19.2 17.7" stroke="#5A8DFF" stroke-width="1.5" stroke-linecap="round" stroke-linejoin="round"/>
<path d="M16.7999 12.3L16.3999 11.3" stroke="#5A8DFF" stroke-width="1.5" stroke-linecap="round" stroke-linejoin="round"/>
<path d="M14.3 16.6L15.3 16.2" stroke="#5A8DFF" stroke-width="1.5" stroke-linecap="round" stroke-linejoin="round"/>
<path d="M20.7 13.8L21.7 13.4" stroke="#5A8DFF" stroke-width="1.5" stroke-linecap="round" stroke-linejoin="round"/>
</svg>
