<svg width="24" height="24" viewBox="0 0 24 24" fill="none" xmlns="http://www.w3.org/2000/svg">
<rect x="0.5" y="0.5" width="23" height="23" rx="3.5" fill="white"/>
<rect x="0.5" y="0.5" width="23" height="23" rx="3.5" stroke="#E5E7EB"/>
<path fill-rule="evenodd" clip-rule="evenodd" d="M12.0002 13.1666C12.6445 13.1666 13.1668 12.6443 13.1668 12C13.1668 11.3556 12.6445 10.8333 12.0002 10.8333C11.3558 10.8333 10.8335 11.3556 10.8335 12C10.8335 12.6443 11.3558 13.1666 12.0002 13.1666Z" fill="#A5B4CB"/>
<path fill-rule="evenodd" clip-rule="evenodd" d="M16.6667 13.1666C17.311 13.1666 17.8333 12.6443 17.8333 12C17.8333 11.3556 17.311 10.8333 16.6667 10.8333C16.0223 10.8333 15.5 11.3556 15.5 12C15.5 12.6443 16.0223 13.1666 16.6667 13.1666Z" fill="#A5B4CB"/>
<path fill-rule="evenodd" clip-rule="evenodd" d="M7.33317 13.1666C7.9775 13.1666 8.49984 12.6443 8.49984 12C8.49984 11.3556 7.9775 10.8333 7.33317 10.8333C6.68884 10.8333 6.1665 11.3556 6.1665 12C6.1665 12.6443 6.68884 13.1666 7.33317 13.1666Z" fill="#A5B4CB"/>
</svg>
