<svg width="24" height="24" viewBox="0 0 24 24" fill="none" xmlns="http://www.w3.org/2000/svg">
<path d="M6 16C7.65685 16 9 14.6569 9 13C9 11.3431 7.65685 10 6 10C4.34315 10 3 11.3431 3 13C3 14.6569 4.34315 16 6 16Z" stroke="white" stroke-linecap="round" stroke-linejoin="round"/>
<path d="M9.70005 14.4001L8.80005 14.1001" stroke="white" stroke-linecap="round" stroke-linejoin="round"/>
<path d="M3.20005 11.9001L2.30005 11.6001" stroke="white" stroke-linecap="round" stroke-linejoin="round"/>
<path d="M4.59998 16.7L4.89998 15.8" stroke="white" stroke-linecap="round" stroke-linejoin="round"/>
<path d="M7.59995 16.7L7.19995 15.7" stroke="white" stroke-linecap="round" stroke-linejoin="round"/>
<path d="M4.80002 10.3L4.40002 9.30005" stroke="white" stroke-linecap="round" stroke-linejoin="round"/>
<path d="M2.30005 14.6L3.30005 14.2" stroke="white" stroke-linecap="round" stroke-linejoin="round"/>
<path d="M8.69995 11.7999L9.69995 11.3999" stroke="white" stroke-linecap="round" stroke-linejoin="round"/>
<path d="M7.39998 9.30005L7.09998 10.2" stroke="white" stroke-linecap="round" stroke-linejoin="round"/>
<path d="M14 2V8H20" stroke="white" stroke-linecap="round" stroke-linejoin="round"/>
<path d="M4 5.5V4C4 3.46957 4.21071 2.96086 4.58579 2.58579C4.96086 2.21071 5.46957 2 6 2H14.5L20 7.5V20C20 20.5304 19.7893 21.0391 19.4142 21.4142C19.0391 21.7893 18.5304 22 18 22H6C5.54582 22.0144 5.10028 21.8736 4.73675 21.601C4.37322 21.3284 4.11338 20.94 4 20.5" stroke="white" stroke-linecap="round" stroke-linejoin="round"/>
</svg>
