<svg width="20" height="20" viewBox="0 0 20 20" fill="none" xmlns="http://www.w3.org/2000/svg">
<path d="M17.5 6.24998V4.99998C17.5 4.55795 17.3244 4.13403 17.0118 3.82147C16.6993 3.50891 16.2754 3.33331 15.8333 3.33331H4.16667C3.72464 3.33331 3.30072 3.50891 2.98816 3.82147C2.67559 4.13403 2.5 4.55795 2.5 4.99998V16.6666C2.5 17.1087 2.67559 17.5326 2.98816 17.8452C3.30072 18.1577 3.72464 18.3333 4.16667 18.3333H7.08333" stroke="white" stroke-linecap="round" stroke-linejoin="round"/>
<path d="M13.3333 1.66669V5.00002" stroke="white" stroke-linecap="round" stroke-linejoin="round"/>
<path d="M6.66675 1.66669V5.00002" stroke="white" stroke-linecap="round" stroke-linejoin="round"/>
<path d="M2.5 8.33331H6.66667" stroke="white" stroke-linecap="round" stroke-linejoin="round"/>
<path d="M14.5833 14.5834L13.3333 13.5417V11.6667" stroke="white" stroke-linecap="round" stroke-linejoin="round"/>
<path d="M18.3333 13.3333C18.3333 14.6594 17.8065 15.9312 16.8688 16.8688C15.9311 17.8065 14.6593 18.3333 13.3333 18.3333C12.0072 18.3333 10.7354 17.8065 9.79772 16.8688C8.86004 15.9312 8.33325 14.6594 8.33325 13.3333C8.33325 12.0072 8.86004 10.7355 9.79772 9.79778C10.7354 8.8601 12.0072 8.33331 13.3333 8.33331C14.6593 8.33331 15.9311 8.8601 16.8688 9.79778C17.8065 10.7355 18.3333 12.0072 18.3333 13.3333Z" stroke="white" stroke-linecap="round" stroke-linejoin="round"/>
</svg>
